Units are S.I. units (second, meters, Newtons, ...)
Angles are in degrees.
name squat
datarows 48
datacolumns 19
range 1.90476 2.37594
endheader
time	exo_pelvis_tx	exo_pelvis_ty	exo_pelvis_tilt	exo_hip_r	exo_hip_l	exo_knee_r	exo_knee_l	r_ankle_coupling	l_ankle_coupling	planar_xdot	planar_zdot	planar_rotydot	exo_hip_rdot	exo_hip_ldot	exo_knee_rdot	exo_knee_ldot	r_ankle_couplingdot	l_ankle_couplingdot	
1.90476	-0.478369	0.750904	0.0291647	31.4925	31.4925	-76.0205	-76.0205	44.4989	44.4989	-4.01521	-5.39749	-4.47725	23.7769	23.7769	-30.9414	-30.9414	11.6422	11.6422	
1.91479	-0.479033	0.749969	0.0243039	31.6641	31.6641	-76.2831	-76.2831	44.5948	44.5948	-3.67288	-4.91569	-4.44594	22.2295	22.2295	-28.513	-28.513	10.7299	10.7299	
1.92481	-0.479632	0.749122	0.0196661	31.8194	31.8194	-76.5203	-76.5203	44.6814	44.6814	-3.31307	-4.41358	-4.32735	20.485	20.485	-25.9081	-25.9081	9.75081	9.75081	
1.93484	-0.480164	0.748368	0.0153305	31.9576	31.9576	-76.7311	-76.7311	44.7584	44.7584	-2.93523	-3.89118	-4.11499	18.5323	18.5323	-23.1194	-23.1194	8.70227	8.70227	
1.94486	-0.480627	0.74771	0.0113766	32.0781	32.0781	-76.9146	-76.9146	44.8253	44.8253	-2.53877	-3.34846	-3.80235	16.3605	16.3605	-20.1394	-20.1394	7.58144	7.58144	
1.95489	-0.481018	0.747153	0.00788368	32.1802	32.1802	-77.0699	-77.0699	44.8819	44.8819	-2.12312	-2.78541	-3.38293	13.9582	13.9582	-16.9607	-16.9607	6.38554	6.38554	
1.96491	-0.481335	0.7467	0.00493124	32.2633	32.2633	-77.1959	-77.1959	44.9279	44.9279	-1.68772	-2.20204	-2.85024	11.3145	11.3145	-13.576	-13.576	5.11176	5.11176	
1.97494	-0.481576	0.746354	0.00259864	32.3266	32.3266	-77.2919	-77.2919	44.9629	44.9629	-1.23199	-1.59833	-2.19779	8.41831	8.41831	-9.97781	-9.97781	3.75732	3.75732	
1.98496	-0.481739	0.74612	0.000965286	32.3694	32.3694	-77.3568	-77.3568	44.9865	44.9865	-0.755368	-0.974265	-1.41906	5.25843	5.25843	-6.15879	-6.15879	2.31943	2.31943	
1.99499	-0.481822	0.746001	0.000110562	32.3912	32.3912	-77.3896	-77.3896	44.9985	44.9985	-0.257275	-0.329846	-0.507566	1.82381	1.82381	-2.11153	-2.11153	0.795287	0.795287	
2.00501	-0.481823	0.745999	0.000122968	32.3915	32.3915	-77.3901	-77.3901	44.9986	44.9986	0.257047	0.330049	0.506019	-1.82083	-1.82083	2.10917	2.10917	-0.794348	-0.794348	
2.01504	-0.48175	0.746108	0.00107544	32.372	32.372	-77.3608	-77.3608	44.9879	44.9879	0.753352	0.97611	1.40549	-5.23247	-5.23247	6.13849	6.13849	-2.31147	-2.31147	
2.02506	-0.481607	0.746322	0.00290043	32.3334	32.3334	-77.3027	-77.3027	44.9665	44.9665	1.22649	1.60352	2.16109	-8.34846	-8.34846	9.92407	9.92407	-3.73659	-3.73659	
2.03509	-0.481394	0.746639	0.00551454	32.2763	32.2763	-77.2165	-77.2165	44.9348	44.9348	1.67711	2.21234	2.78025	-11.182	-11.182	13.4758	13.4758	-5.0738	-5.07381	
2.04511	-0.481115	0.747057	0.00883435	32.2013	32.2013	-77.1027	-77.1027	44.8928	44.8928	2.10588	2.80265	3.27043	-13.7465	-13.7465	16.8036	16.8036	-6.32722	-6.32722	
2.05514	-0.48077	0.747572	0.0127764	32.1087	32.1087	-76.962	-76.962	44.8407	44.8407	2.51346	3.37451	3.63908	-16.0551	-16.0551	19.9174	19.9174	-7.50093	-7.50093	
2.06516	-0.480361	0.748181	0.0172574	31.9992	31.9992	-76.795	-76.795	44.7787	44.7787	2.90051	3.92801	3.89365	-18.1211	-18.1211	22.8271	22.8271	-8.59904	-8.59904	
2.07519	-0.479891	0.748883	0.0221938	31.8733	31.8733	-76.6023	-76.6023	44.707	44.707	3.26769	4.4632	4.04157	-19.9577	-19.9577	25.5426	25.5426	-9.62566	-9.62566	
2.08521	-0.47936	0.749673	0.0275022	31.7314	31.7314	-76.3845	-76.3845	44.6257	44.6257	3.61566	4.98017	4.09031	-21.5783	-21.5783	28.0739	28.0739	-10.5849	-10.5849	
2.09524	-0.478772	0.750549	0.0330993	31.5742	31.5742	-76.1421	-76.1421	44.535	44.535	3.94508	5.47898	4.04731	-22.996	-22.996	30.4307	30.4307	-11.4808	-11.4808	
2.10526	-0.478127	0.751509	0.0389015	31.402	31.402	-75.8758	-75.8758	44.435	44.435	4.2566	5.95971	3.92002	-24.2241	-24.2241	32.6232	32.6232	-12.3176	-12.3176	
2.11529	-0.477428	0.75255	0.0448256	31.2155	31.2155	-75.5863	-75.5863	44.3261	44.3261	4.5509	6.42242	3.71588	-25.276	-25.276	34.6611	34.6611	-13.0993	-13.0993	
2.12531	-0.476676	0.753668	0.050788	31.0152	31.0152	-75.274	-75.274	44.2082	44.2082	4.82862	6.86718	3.44235	-26.1648	-26.1648	36.5544	36.5544	-13.83	-13.83	
2.13534	-0.475873	0.754862	0.0567054	30.8015	30.8015	-74.9397	-74.9397	44.0816	44.0816	5.09043	7.29408	3.10687	-26.9039	-26.9039	38.313	38.313	-14.5138	-14.5138	
2.14536	-0.475022	0.756127	0.0624943	30.5751	30.5751	-74.5838	-74.5838	43.9464	43.9464	5.33699	7.70317	2.71689	-27.5064	-27.5064	39.9468	39.9468	-15.1548	-15.1548	
2.15539	-0.474123	0.757462	0.0680714	30.3363	30.3363	-74.2071	-74.2071	43.8029	43.8029	5.56896	8.09453	2.27986	-27.9857	-27.9857	41.4657	41.4657	-15.7572	-15.7572	
2.16541	-0.473178	0.758863	0.0733531	30.0858	30.0858	-73.8102	-73.8102	43.6512	43.6512	5.787	8.46823	1.80322	-28.355	-28.355	42.8797	42.8797	-16.325	-16.325	
2.17544	-0.472191	0.760329	0.0782562	29.824	29.824	-73.3935	-73.3935	43.4914	43.4914	5.99176	8.82434	1.29444	-28.6276	-28.6276	44.1986	44.1986	-16.8623	-16.8624	
2.18546	-0.471161	0.761855	0.0826971	29.5515	29.5515	-72.9578	-72.9578	43.3238	43.3238	6.18391	9.16294	0.760945	-28.8167	-28.8167	45.4324	45.4324	-17.3733	-17.3733	
2.19549	-0.470091	0.763439	0.0865925	29.2688	29.2688	-72.5036	-72.5036	43.1485	43.1485	6.36411	9.48409	0.210196	-28.9356	-28.9356	46.5909	46.5909	-17.862	-17.862	
2.20551	-0.468983	0.765079	0.0898589	28.9763	28.9763	-72.0316	-72.0316	42.9656	42.9656	6.53302	9.78787	-0.350363	-28.9975	-28.9975	47.6842	47.6842	-18.3326	-18.3326	
2.21554	-0.467839	0.766772	0.092413	28.6747	28.6747	-71.5424	-71.5424	42.7754	42.7754	6.6913	10.0743	-0.913282	-29.0158	-29.0158	48.7221	48.7221	-18.7891	-18.7891	
2.22556	-0.466661	0.768514	0.0941713	28.3645	28.3645	-71.0365	-71.0365	42.578	42.578	6.8396	10.3436	-1.47111	-29.0037	-29.0037	49.7144	49.7144	-19.2357	-19.2357	
2.23559	-0.46545	0.770303	0.0950504	28.0461	28.0461	-70.5145	-70.5145	42.3735	42.3735	6.97859	10.5957	-2.01641	-28.9744	-28.9744	50.6713	50.6713	-19.6764	-19.6764	
2.24561	-0.464208	0.772136	0.0949669	27.7201	27.7201	-69.9772	-69.9772	42.1622	42.1622	7.10893	10.8307	-2.54172	-28.9412	-28.9412	51.6024	51.6024	-20.1153	-20.1154	
2.25564	-0.462937	0.774011	0.0938373	27.387	27.387	-69.425	-69.425	41.9443	41.9443	7.23127	11.0486	-3.0396	-28.9173	-28.9173	52.5178	52.5178	-20.5567	-20.5567	
2.26566	-0.461638	0.775925	0.0915783	27.0473	27.0473	-68.8586	-68.8586	41.7198	41.7198	7.34628	11.2497	-3.5026	-28.9161	-28.9161	53.4274	53.4274	-21.0045	-21.0045	
2.27569	-0.460314	0.777874	0.0881064	26.7016	26.7016	-68.2785	-68.2785	41.489	41.489	7.45462	11.4338	-3.92327	-28.9508	-28.9508	54.3411	54.3411	-21.4628	-21.4628	
2.28571	-0.458967	0.779856	0.0833383	26.3503	26.3503	-67.6855	-67.6855	41.252	41.252	7.55695	11.6011	-4.29417	-29.0347	-29.0347	55.2688	55.2688	-21.9358	-21.9358	
2.29574	-0.457598	0.781868	0.0771905	25.994	25.994	-67.0801	-67.0801	41.0091	41.0091	7.65392	11.7517	-4.60783	-29.1809	-29.1809	56.2204	56.2204	-22.4276	-22.4276	
2.30576	-0.456209	0.783908	0.0695795	25.6332	25.6332	-66.4628	-66.4628	40.7603	40.7603	7.7462	11.8857	-4.85683	-29.4029	-29.4029	57.2059	57.2059	-22.9422	-22.9422	
2.31579	-0.454802	0.785972	0.0604221	25.2683	25.2683	-65.8344	-65.8344	40.5058	40.5058	7.83445	12.003	-5.0337	-29.7137	-29.7137	58.2351	58.2351	-23.4839	-23.4839	
2.32581	-0.453379	0.788058	0.0496347	24.9001	24.9001	-65.1954	-65.1954	40.2458	40.2458	7.91933	12.1039	-5.131	-30.1268	-30.1268	59.3179	59.3179	-24.0566	-24.0566	
2.33584	-0.451941	0.790163	0.0371339	24.5289	24.5289	-64.5464	-64.5464	39.9806	39.9806	8.00149	12.1883	-5.14128	-30.6553	-30.6553	60.4643	60.4643	-24.6645	-24.6645	
2.34586	-0.45049	0.792284	0.0228364	24.1552	24.1552	-63.888	-63.888	39.7102	39.7102	8.08159	12.2563	-5.0571	-31.3126	-31.3126	61.6842	61.6842	-25.3116	-25.3116	
2.35589	-0.449029	0.794419	0.00665872	23.7796	23.7796	-63.2209	-63.2209	39.4348	39.4348	8.16031	12.308	-4.871	-32.1118	-32.1118	62.9875	62.9875	-26.0022	-26.0022	
2.36591	-0.447558	0.796564	-0.0114826	23.4027	23.4027	-62.5456	-62.5456	39.1546	39.1546	8.23829	12.3434	-4.57554	-33.0663	-33.0663	64.3841	64.3841	-26.7402	-26.7402	
2.37594	-0.44608	0.798717	-0.0316709	23.0248	23.0248	-61.8627	-61.8627	38.8697	38.8697	8.31619	12.3627	-4.16326	-34.1893	-34.1893	65.884	65.884	-27.5299	-27.5299	
